<svg width="20" height="20" xmlns="http://www.w3.org/2000/svg" viewBox="0 0 150 150"><g><path d="M 55.97 146.93 C53.27,146.06 50.83,145.21 48.59,144.34 L 50.17 135.38 C51.39,128.47 52.99,123.57 55.95,117.75 C59.87,110.01 59.96,109.62 58.28,107.75 C54.97,104.10 53.39,103.85 47.06,105.98 C39.45,108.54 31.79,108.54 26.14,105.98 C23.74,104.89 21.21,104.00 20.52,104.00 C19.83,104.00 17.30,105.74 14.91,107.86 C12.29,110.19 11.03,111.51 11.47,113.50 C10.74,112.19 10.12,111.19 9.88,111.00 C8.51,109.89 5.06,102.04 2.85,94.99 C-0.19,85.29 -0.43,66.16 2.36,56.00 C9.52,29.93 29.93,9.52 56.00,2.36 C66.14,-0.43 85.29,-0.19 95.00,2.84 C116.28,9.49 133.91,24.46 142.47,43.15 C146.29,51.50 150.00,67.12 150.00,74.88 C150.00,84.58 146.21,98.66 141.09,109.27 C141.41,108.21 141.27,107.50 140.82,106.67 C139.10,103.45 129.76,94.44 126.26,92.64 C123.29,91.10 122.89,91.14 117.82,93.50 C110.40,96.96 101.81,96.92 93.98,93.41 C89.01,91.18 87.88,90.99 85.85,92.07 C73.95,98.41 61.68,116.90 57.03,135.50 C55.00,143.61 54.56,145.95 55.97,146.93 ZM 94.20 86.41 C98.09,88.35 100.91,88.99 105.45,88.98 C129.43,88.89 140.79,59.69 123.05,43.73 C117.55,38.79 112.67,36.99 104.88,37.02 C98.51,37.05 91.92,39.76 87.16,44.31 C74.12,56.79 77.69,78.19 94.20,86.41 ZM 27.23 99.94 C33.52,103.13 42.42,102.49 48.23,98.41 C57.72,91.74 60.44,79.11 54.46,69.43 C50.31,62.71 45.37,60.04 37.07,60.02 C28.46,59.99 22.75,62.75 18.93,68.77 C11.78,80.04 15.49,93.98 27.23,99.94 ZM 55.99 46.07 C60.20,47.35 62.29,47.08 67.69,44.57 C82.01,37.90 82.77,16.62 68.93,9.46 C64.16,7.00 54.43,7.56 49.25,10.59 C44.29,13.50 40.03,20.97 40.01,26.78 C39.98,35.43 46.38,43.14 55.99,46.07 ZM 63.54 80.25 C64.21,85.68 64.65,85.65 71.46,79.74 L 75.41 76.30 L 74.21 71.08 C72.73,64.66 72.65,56.06 74.04,52.40 C75.50,48.55 73.86,47.21 70.42,49.46 C66.05,52.32 57.22,52.63 51.54,50.12 L 46.74 48.00 L 43.20 50.18 C41.59,51.18 40.56,51.69 40.57,52.18 C40.58,52.88 42.74,53.53 48.38,55.54 C51.07,56.49 54.97,58.97 57.04,61.04 C60.90,64.90 62.07,68.36 63.54,80.25 ZM 138.83 113.57 C138.18,114.71 137.51,115.78 136.84,116.76 C132.73,122.76 127.95,128.00 122.52,132.47 C128.41,127.59 133.54,121.77 137.92,115.00 C138.25,114.49 138.55,114.01 138.83,113.57 ZM 62.00 148.78 C60.87,148.45 59.78,148.12 58.73,147.80 C60.15,148.15 61.90,148.64 63.00,149.01 C63.08,149.04 63.17,149.06 63.25,149.09 C62.81,148.99 62.39,148.89 62.00,148.78 ZM 37.88 139.32 C37.25,138.96 36.62,138.58 36.00,138.20 C34.78,137.45 33.50,136.57 32.18,135.60 C34.04,136.92 35.95,138.17 37.88,139.32 ZM 91.24 147.94 C87.70,148.84 83.26,149.45 78.81,149.73 C83.30,149.42 87.82,148.81 91.24,147.94 Z" fill="rgba(96,96,101,1)"/><path d="M 63.00 149.01 C61.62,148.55 59.26,147.90 57.75,147.57 C54.44,146.84 54.39,146.05 57.03,135.50 C61.68,116.90 73.95,98.41 85.85,92.07 C87.88,90.99 89.01,91.18 93.98,93.41 C101.81,96.92 110.40,96.96 117.82,93.50 C122.89,91.14 123.29,91.10 126.26,92.64 C129.76,94.44 139.10,103.45 140.82,106.67 C141.78,108.45 141.34,109.71 137.92,115.00 C127.06,131.81 111.54,142.75 91.24,147.94 C82.85,150.08 67.91,150.65 63.00,149.01 ZM 42.21 141.73 C33.04,137.01 23.63,129.67 17.86,122.74 C9.87,113.14 9.74,112.45 14.91,107.86 C17.30,105.74 19.83,104.00 20.52,104.00 C21.21,104.00 23.74,104.89 26.14,105.98 C31.79,108.54 39.45,108.54 47.06,105.98 C53.39,103.85 54.97,104.10 58.28,107.75 C59.96,109.62 59.87,110.01 55.95,117.75 C52.99,123.57 51.39,128.47 50.17,135.38 L 48.48 144.96 L 42.21 141.73 ZM 27.23 99.94 C15.49,93.98 11.78,80.04 18.93,68.77 C22.75,62.75 28.46,59.99 37.07,60.02 C45.37,60.04 50.31,62.71 54.46,69.43 C60.44,79.11 57.72,91.74 48.23,98.41 C42.42,102.49 33.52,103.13 27.23,99.94 ZM 94.20 86.41 C77.69,78.19 74.12,56.79 87.16,44.31 C91.92,39.76 98.51,37.05 104.88,37.02 C112.67,36.99 117.55,38.79 123.05,43.73 C140.79,59.69 129.43,88.89 105.45,88.98 C100.91,88.99 98.09,88.35 94.20,86.41 ZM 63.54 80.25 C62.07,68.36 60.90,64.90 57.04,61.04 C54.97,58.97 51.07,56.49 48.38,55.54 C38.81,52.14 39.27,52.61 43.20,50.18 L 46.74 48.00 L 51.54 50.12 C57.22,52.63 66.05,52.32 70.42,49.46 C73.86,47.21 75.50,48.55 74.04,52.40 C72.65,56.06 72.73,64.66 74.21,71.08 L 75.41 76.30 L 71.46 79.74 C64.65,85.65 64.21,85.68 63.54,80.25 ZM 55.99 46.07 C46.38,43.14 39.98,35.43 40.01,26.78 C40.03,20.97 44.29,13.50 49.25,10.59 C54.43,7.56 64.16,7.00 68.93,9.46 C82.77,16.62 82.01,37.90 67.69,44.57 C62.29,47.08 60.20,47.35 55.99,46.07 Z" fill="rgba(252,252,252,1)"/></g></svg>
