<svg width="20" height="20" xmlns="http://www.w3.org/2000/svg" viewBox="0 0 154 154"><g><path d="M 62.50 152.48 C45.85,148.81 34.91,142.87 22.91,131.00 C13.18,121.36 7.46,112.43 3.39,100.50 C-0.49,89.13 -1.18,70.09 1.86,58.06 C8.73,30.92 28.28,10.47 55.36,2.12 C61.03,0.37 64.77,0.00 77.00,0.00 C94.00,0.00 99.97,1.36 113.50,8.31 C125.31,14.37 138.90,28.20 145.29,40.63 C163.69,76.49 152.12,120.04 118.48,141.56 C102.18,151.98 79.94,156.32 62.50,152.48 ZM 30.66 109.39 C34.67,113.40 38.70,112.91 45.18,107.63 C48.13,105.23 52.25,101.18 54.34,98.63 L 58.13 94.00 L 98.37 94.00 L 106.99 102.43 C115.87,111.12 119.33,112.96 123.89,111.39 C133.23,108.17 133.36,78.42 124.13,59.94 C115.69,43.05 105.63,39.08 90.14,46.50 C80.76,51.00 76.35,51.07 68.19,46.86 C56.72,40.94 46.81,42.14 39.25,50.34 C31.18,59.10 26.68,72.82 26.57,89.00 C26.48,101.94 27.31,106.03 30.66,109.39 ZM 57.80 80.80 C55.17,83.43 52.00,81.61 52.00,77.48 C52.00,74.32 51.78,74.10 48.25,73.81 C44.84,73.53 44.47,73.21 44.19,70.31 C43.90,67.28 44.07,67.11 47.69,66.81 C51.30,66.52 51.52,66.31 51.81,62.75 C52.10,59.22 52.32,59.00 55.50,59.00 C58.68,59.00 58.90,59.22 59.19,62.75 C59.47,66.09 59.83,66.54 62.50,66.83 C66.45,67.26 67.39,68.31 66.61,71.43 C66.07,73.57 65.39,74.00 62.48,74.00 C59.34,74.00 59.00,74.27 59.00,76.80 C59.00,78.34 58.46,80.14 57.80,80.80 ZM 117.91 70.87 C116.00,74.28 111.84,74.84 109.06,72.06 C106.59,69.59 106.49,68.18 108.56,65.22 C110.79,62.04 115.45,62.24 117.67,65.62 C119.20,67.96 119.23,68.51 117.91,70.87 ZM 101.78 80.44 C100.56,81.30 99.27,82.00 98.91,82.00 C97.24,82.00 93.00,77.64 93.00,75.93 C93.00,73.44 96.44,70.00 98.93,70.00 C103.84,70.00 105.90,77.55 101.78,80.44 ZM 102.17 64.35 C101.17,65.26 99.67,66.00 98.85,66.00 C96.94,66.00 93.00,61.85 93.00,59.84 C93.00,56.05 100.04,53.44 102.80,56.20 C104.59,57.99 104.25,62.47 102.17,64.35 Z" fill="rgba(96,96,101,1)"/><path d="M 30.66 109.39 C27.31,106.03 26.48,101.94 26.57,89.00 C26.68,72.82 31.18,59.10 39.25,50.34 C46.81,42.14 56.72,40.94 68.19,46.86 C76.35,51.07 80.76,51.00 90.14,46.50 C105.63,39.08 115.69,43.05 124.13,59.94 C133.36,78.42 133.23,108.17 123.89,111.39 C119.33,112.96 115.87,111.12 106.99,102.43 L 98.37 94.00 L 78.25 94.00 L 58.13 94.00 L 54.34 98.63 C52.25,101.18 48.13,105.23 45.18,107.63 C38.70,112.91 34.67,113.40 30.66,109.39 ZM 57.80 80.80 C58.46,80.14 59.00,78.34 59.00,76.80 C59.00,74.27 59.34,74.00 62.48,74.00 C65.39,74.00 66.07,73.57 66.61,71.43 C67.39,68.31 66.45,67.26 62.50,66.83 C59.83,66.54 59.47,66.09 59.19,62.75 C58.90,59.22 58.68,59.00 55.50,59.00 C52.32,59.00 52.10,59.22 51.81,62.75 C51.52,66.31 51.30,66.52 47.69,66.81 C44.07,67.11 43.90,67.28 44.19,70.31 C44.47,73.21 44.84,73.53 48.25,73.81 C51.78,74.10 52.00,74.32 52.00,77.48 C52.00,81.61 55.17,83.43 57.80,80.80 ZM 101.78 80.44 C105.90,77.55 103.84,70.00 98.93,70.00 C96.44,70.00 93.00,73.44 93.00,75.93 C93.00,77.64 97.24,82.00 98.91,82.00 C99.27,82.00 100.56,81.30 101.78,80.44 ZM 117.91 70.87 C119.23,68.51 119.20,67.96 117.67,65.62 C115.45,62.24 110.79,62.04 108.56,65.22 C106.49,68.18 106.59,69.59 109.06,72.06 C111.84,74.84 116.00,74.28 117.91,70.87 ZM 102.17 64.35 C104.25,62.47 104.59,57.99 102.80,56.20 C100.04,53.44 93.00,56.05 93.00,59.84 C93.00,61.85 96.94,66.00 98.85,66.00 C99.67,66.00 101.17,65.26 102.17,64.35 Z" fill="rgba(254,254,254,1)"/></g></svg>
