<svg width="20" height="20" xmlns="http://www.w3.org/2000/svg" viewBox="0 0 148 146"><g><path d="M 63.26 127.77 L 46.04 110.54 L 37.75 118.77 L 46.02 110.46 L 40.00 104.50 L 33.98 98.54 L 22.94 109.55 L 33.98 98.45 L 18.49 82.99 C7.50,72.02 2.73,67.46 3.20,63.54 C3.57,60.48 7.14,57.81 13.44,52.78 C24.34,44.09 32.07,41.67 48.38,41.86 L 60.27 41.99 L 68.63 33.62 C75.89,26.37 77.00,24.80 77.00,21.81 C77.00,11.92 84.27,0.00 90.31,0.00 C93.10,0.00 96.57,3.11 120.73,27.27 C142.68,49.22 148.00,55.06 148.00,57.19 C148.00,62.40 136.55,70.00 128.70,70.00 C124.11,70.00 120.62,71.99 114.14,78.30 C105.74,86.50 105.09,88.18 105.74,100.07 C106.19,108.11 105.92,110.91 104.15,116.74 C100.71,128.06 87.98,145.00 82.91,145.00 C81.12,145.00 76.05,140.56 63.26,127.77 ZM 1.48 139.83 C0.55,138.41 0.00,136.67 0.00,134.77 C0.00,134.57 0.11,134.28 0.33,133.89 C-0.08,135.66 0.44,137.97 1.48,139.83 ZM 12.54 142.48 C11.70,143.09 11.09,143.45 10.73,143.54 C10.46,143.60 10.18,143.66 9.91,143.70 C10.70,143.47 11.56,143.08 12.54,142.48 Z" fill="currentColor"/><path d="M 4.32 142.81 C1.64,141.51 -0.43,136.82 0.35,133.77 C0.67,132.52 8.37,124.08 17.46,115.02 L 33.98 98.54 L 40.00 104.50 L 46.02 110.46 L 30.76 125.80 C12.46,144.20 10.20,145.65 4.32,142.81 Z" fill="currentColor"/></g></svg>
