<svg xmlns="http://www.w3.org/2000/svg" width="24" height="24" viewBox="0 0 153 130"><path d="M39.92 127.08c-3.73-3.73-3.91-8.18-.47-11.63 2.35-2.34 3.02-2.45 15-2.45H67V99.24l-21.75-.44c-19.99-.41-22.18-.63-27.02-2.75C11.28 93 3.95 85.01 1.69 78.02c-2.47-7.67-2.48-49.35-.01-57 2.18-6.73 9.21-14.59 15.8-17.66l5.02-2.34 50.64-.01c48.24-.01 50.97.09 57.28 2.04 8.88 2.74 16.13 9.77 19.65 19.04 2.31 6.1 2.43 7.5 2.43 28.91 0 24.43-.43 27.04-5.67 34.72-3.1 4.54-9.18 9.16-14.83 11.27-2.35.88-10.97 1.46-26.25 1.77L83 99.21V113h13.39c15.26 0 17.24.78 18.26 7.2.52 3.21.18 4.12-2.45 6.75l-3.05 3.05h-66.3zm27.69-63.25L75 56.66l7.39 7.17c4.07 3.94 7.64 7.17 7.94 7.17s1.69-.44 3.1-.98c4.66-1.77 3.48-5.68-3.93-13.02-3.57-3.54-6.5-6.87-6.5-7.4s3.38-4.42 7.5-8.66 7.5-8.29 7.5-9c0-2.06-3.13-4.94-5.38-4.94-1.25 0-5.17 3.08-9.85 7.73L75 42.45l-7.77-7.72C62.95 30.48 58.6 27 57.56 27 55.24 27 52 29.78 52 31.77c0 .8 3.38 4.93 7.5 9.17S67 49.07 67 49.6s-2.93 3.86-6.5 7.4c-4.93 4.89-6.5 7.12-6.5 9.25 0 1.98.66 3.08 2.25 3.72 3.55 1.42 3.57 1.41 11.36-6.14" fill="rgba(249,249,249,1)"/></svg>
